# xmcd
#
# Track frame offsets: 
#        150
#        18091
#        39450
#        61079
#        84425
#        104258
#        127679
#        146369
#        168112
#        189962
#        205111
#        223861
#        248976
#        264547
#        283902
#        306068
#        327080
#
# Disc length: 4734 seconds
#
# Revision: 0
# Processed by: cddbd v1.5.2PL0 Copyright (c) Steve Scherf et al.
# Submitted via: ExactAudioCopy v1.3
#
DISCID=e1127c11
DTITLE=Various Artist - Akella Presents - vol. 184 - Electric Blues  
DTITLE=CD1
DYEAR=2019
DGENRE=Blues
TTITLE0=Pat Finochio - Love Spell Woman
TTITLE1=Ron Evans Group - Wake Up
TTITLE2=Michael Bloom and the Blues Prophecy - Just Can't Win
TTITLE3=Snowy White - Can't Seem to Do Much About It
TTITLE4=Jack Butler's Jones - Oh Pretty Woman
TTITLE5=Hammerheads - Ghost in My House
TTITLE6=Danny Worsnop - Keep On Lovin'
TTITLE7=Bluescorp - Like a Moth to a Flame
TTITLE8=Anders Osborne - Smoke and Mirrors
TTITLE9=Shawn James - Love Will Find A Way I
TTITLE10=Thunder - Bigger Than Both of Us
TTITLE11=Billy C. Farlow - What Have I Done
TTITLE12=Mighty Joe Milsaps - I'm Gonna Keep What I've Got
TTITLE13=Mick Kolassa - Prison Song
TTITLE14=Bad Bob Bates - Save Me
TTITLE15=The Texas Horns - Guitar Town
TTITLE16=Paul Nelson - Go Down Ezekiel
EXTD=
EXTT0=
EXTT1=
EXTT2=
EXTT3=
EXTT4=
EXTT5=
EXTT6=
EXTT7=
EXTT8=
EXTT9=
EXTT10=
EXTT11=
EXTT12=
EXTT13=
EXTT14=
EXTT15=
EXTT16=
PLAYORDER=
